<svg xmlns="http://www.w3.org/2000/svg" viewBox="0 0 96 96" width="96" height="96">
  <rect width="96" height="96" rx="18" fill="#111111"/>
  <circle cx="48" cy="48" r="43" fill="rgba(201,163,106,0.08)"/>
  <ellipse cx="48" cy="49" rx="31" ry="37" fill="none" stroke="#C9A36A" stroke-width="2.4"/>
  <ellipse cx="48" cy="49" rx="35" ry="41" fill="none" stroke="#C9A36A" stroke-width="0.9" opacity="0.36"/>
  <path d="M33 26c4.8-3.1 10.2-4.7 16-4.7 4.5 0 8.7 1 12.5 3.1" fill="none" stroke="#C9A36A" stroke-width="1.7" stroke-linecap="round" opacity="0.72"/>
  <path d="M50.5 18c-3.5 2.2-5.3 5.2-5.3 8.9 0 2.4.8 4.4 2.4 6.1 1.4 1.5 3.4 2.4 5.8 2.7-1.2-1.8-1.8-3.7-1.8-5.7 0-3.2 1.8-5.9 5.3-8.1-2.7.4-4.9-.9-6.4-3.9Z" fill="#C9A36A"/>
  <text x="48" y="61" text-anchor="middle" font-family="Georgia, 'Times New Roman', serif" font-weight="700" font-size="31" letter-spacing="-1" fill="#C9A36A">MK</text>
  <path d="M24 69c7.7 5 15.7 7.5 24 7.5S64.3 74 72 69" fill="none" stroke="#C9A36A" stroke-width="1.7" stroke-linecap="round" opacity="0.72"/>
</svg>
